<?xml version="1.0" encoding="utf-8"?>
<!-- Generator: Adobe Illustrator 23.0.6, SVG Export Plug-In . SVG Version: 6.00 Build 0)  -->
<svg version="1.1" id="Layer_1" xmlns="http://www.w3.org/2000/svg" xmlns:xlink="http://www.w3.org/1999/xlink" x="0px" y="0px"
	 viewBox="0 0 512 512" style="enable-background:new 0 0 512 512;" xml:space="preserve">
<style type="text/css">
	.st0{fill:#FFFFFF;stroke:#007D7F;stroke-width:3;stroke-miterlimit:10;}
	.st1{fill:#FFFFFF;}
	.st2{fill:#007D7F;}
</style>
<path class="st0" d="M256,0c141.4,0,256,114.6,256,256S397.4,512,256,512S0,397.4,0,256S114.6,0,256,0z"/>
<path class="st0" d="M166.4,80.8c4.4,0,8.6,1.1,12.3,2.9c4-3.9,9.5-6.3,15.5-6.3c10.5,0,19.2,7.2,21.6,17c5.2,1.6,9.4,5.5,11.3,10.6
	c0.6-0.1,1.3-0.1,1.9-0.1c9.7,0,17.5,7.8,17.5,17.5c0,9.7-7.8,17.5-17.5,17.5c-3,0-5.8-0.8-8.3-2.1c-2.1,7.3-8.8,12.6-16.8,12.6
	c-4.9,0-9.3-2-12.4-5.2c-3.2,3.2-7.6,5.2-12.4,5.2c-4.6,0-8.8-1.8-12-4.7c-3.2,3.5-7.8,5.7-12.9,5.7c-4.8,0-9.1-1.9-12.3-5
	c-1.4,0.3-2.9,0.5-4.5,0.5c-11.5,0-20.8-9.3-20.8-20.8s9.3-20.8,20.8-20.8c0.6,0,1.2,0,1.9,0.1C140.8,91.4,152.3,80.8,166.4,80.8z"
	/>
<path class="st0" d="M293,144.5c27.9,0,50.5,22.6,50.5,50.5s-22.6,50.5-50.5,50.5s-50.5-22.6-50.5-50.5S265.1,144.5,293,144.5z"/>
<path class="st0" d="M0.1,260.7c25.6-19.4,156.8-118.9,172-124.7c16.8-6.4,91.6,83.5,113.7,88.6c22.1,5,100.6-68.4,100.6-68.4
	s27.1,19.1,78.5,60.4c15.2,12.2,31.2,16.4,46,16.1c0.7,7.7,1.1,15.5,1.1,23.4c0,2.3,0,4.6-0.1,6.9L1.4,283
	C0.6,275.6,0.2,268.2,0.1,260.7z"/>
<g>
	<path class="st0" d="M386.4,156.1c0,0,27.1,19.1,78.5,60.4c15.2,12.2,31.2,16.4,46,16.1c0.7,7.7,1.1,15.5,1.1,23.4
		c0,2.3,0,4.6-0.1,6.9l-159.5,6.3c-0.9-3.9-0.6-7.3,2.3-8.8c8.3-4.2,31.6-2.1,22-34.5C367.1,193.5,386.4,156.1,386.4,156.1z"/>
	<path class="st0" d="M172.1,136c15.2-5.8,77.3,66.6,105.7,84.7l38.5,49.4l-169.5,7.1c-7.1-14-7.1-28.1,11.2-37.3
		C206.3,215.8,172.1,136,172.1,136z"/>
</g>
<path class="st0" d="M227.6,362.9c-0.9-6.5,2-15.9,7.5-26.3l0.3-0.5l-3-6.4l3.4-0.1l-0.7-5.5l10.9,2.1l-0.7-5.5l-5.5,3.4l-1.8,1.1
	l-0.3,0.2l-0.6,0.4l-1.8,1.1h-1l2.9,6.4l-1.7,2.7l-3.2-7.3l3.7,1.2l-1-6.7l11.1,7.9l-1-6.7l0.1,0.2l-4.1,0.8l-2.8,0.6l-0.4,0.1
	l-0.7,0.1l-1.8,0.4h-0.9l3,6.5l-3.9-3l2.3-0.7l1.3-4.4l0.5-1.8l0.8-5l9.9,2.4l0.6-4l-2.5-5.4l11.8-1.8l-1.6-3.5l-2.8-6.8l10.5,3.4
	l-0.1-6.1l11.5,4.2l-0.1-4.1V292l1.7-0.5l-1.7-7.4l7.8,2.9l-1.9-6.2l5.6,1l0.5-7l12.2,6.9l0.1-1l-1.2-6.7l12.4,5.3l-1.1-6.7l6-2.5
	l0.1-0.1h0.4h0.8l0,0l3,4l4.2-4.1l2.1,0.1h0.4l0.7,0.6l2.4-6.5l2.7-2.5l0.4-0.3l1.2-2.7l9.1,13.2l3.1-7.4l3.7-0.8l2.3-1.5l4.7-3.9
	l0.2,0.6l8.4,6.9l2.1-7l10.7,10.1l2.1-7h0.1l1.3-0.3l0.5-0.1l0.8-0.2l0.8-0.2h0.1l4.4-5.5l5.3,12.9l4.4-5.5l13.2,1h0.2l2.3,0.9
	l0.6,1.2l4.8-3.6l2.3,0.5l0.4,0.1l0.9,1.4l3.2-7.6l2.1-0.2h0.5l0.8-0.1h0.3h0.2l2.4-0.2l0.9-5.7l11.1,2.9l0.9-5.7l0.5-0.3l1.2-0.8
	l0.8-0.6l0.1-0.1l1-0.6v0.4l7,0.1l-4.3,3.9l1.4,5.5l7-2.2l2.8-0.9l10.2-1.3l3.6-1.7l1.3-0.8l5.8-5.2l0.6,8v0.6l4.8,0.6l2.7-5.2
	l6.6,9.6l2.7-5.2l2.4-1.3l0.2-0.1l0.7-0.3l1.6-0.8l2.8-1.2l-1.4,14.7l4.2-1.9c-0.8,42.6-12,82.7-31.2,117.8
	C421.7,363.3,328.7,339.6,227.6,362.9z"/>
<path class="st0" d="M11,330.4c15.2-0.7,30.3-0.2,44.6,2c89.8,13.8,147.7,6.7,216.5-4.4c68.7-11,113.9,6.3,171.1,32.8
	c18.3,8.5,30.7,9.8,42,9.5C443.1,454.3,356.3,512,256,512C140.5,512,42.9,435.5,11,330.4z"/>
<path class="st0" d="M6.6,198l4.5,13.9L12,211l3.1-3.7l3.8-6.5l2.3,15.2l3.8-6.5l5.7-1.5l3.3-0.9l5.3,6.2l3.9-4.1l1,0.1l1,0.1
	l3.1,0.2h0.5h0.1h0.2l0,0h0.2h0.2l0.9-0.9l0.4,1.3l0.5,0.2l6.2-2.1l-0.9,3.7l7.3-2.6l-7,13.8l3.6-1.3l7.3-4.8l2-1.9l6.6-3.5l-3,14.7
	l1.4-0.7l2.9-0.2l3.3-5.8l1,1.3l4.4-3.8l3.6,11.4l0.3-0.3l0.4-3.4l-6.6,0.3h-0.5h-0.3h-0.6h-0.3l-2.2,0.1l-2.7,0.1l3.4-5.9l1,1.3
	l4.6-3.8l3.2,11.9l0.6-0.5l1.7-6.4l10.6,8.1l0.4-0.8l1.5-5.5l2.7,1.6l5.2-0.9l0.6,3.7l6.1,0.5l-0.8,3.1l4.6-0.3l-0.7,3.3l5.1,2
	l4.7,1.8l3.6-3.7l3.3,14.6l5.1-5.2l3.6-0.3l1-0.1h0.5l7.3,0.7l1.4-4.7l0.1-0.1l-0.3,0.2l-0.7,0.4l-7.9,5.3v-2l7.7,8.7l2.3-6.4
	l0.5,0.8l2.4,3.3l1.8,2.5l0.5,1l4.5-4.7h0.6l2.7,0.2l1.6-2l7.7-7.5c6.6-8.1-2.2-1.1-10.9,4.2l-0.9,0.3l-2.7,5.9l2.5,1.5l2.6,1.6
	l2-2.1l0.6-0.6l2-1.8l0.6-0.7l3.3,13.4l4.4-5.1l1.2,2.5l2.3,4.9l0.3,0.6l0.7,3.1l5.6-4.9l2.2,3.3l0.6,0.9l0.3,7.1l5.8-1.7l3,0.7
	l1.1,0.3c10.6,8-2.6,5.8-2.6,5.8S65,287.5,1.6,285c-1-9.5-1.6-19.2-1.6-29C0,236,2.3,216.6,6.6,198z"/>
<path class="st0" d="M58,221.3l-0.9,1.8l3.6-1.3l3.1-2l-6.7,13.1l3.6-1.3l7.3-4.8l2-1.9l4.4-2.3l-0.8,3.7l1.4-0.7h0.8l-2.1,10.6
	l1.4-0.7l2.9-0.2l3.3-5.8l1,1.3l4.4-3.8l3.6,11.4l0.3-0.3l0.4-3.4l-6.6,0.3h-0.5h-0.3H83h-0.3l-2.2,0.1l-2.7,0.1l3.4-5.9l1,1.3
	l4.6-3.8l3.2,11.9l0.6-0.5l1.7-6.4l10.6,8.1l0.4-0.8l1.5-5.5l2.7,1.6l5.2-0.9l0.6,3.7l6.1,0.5l-0.8,3.1l4.6-0.3l-0.7,3.3l5.1,2
	l4.7,1.8l3.6-3.7l3.3,14.6l5.1-5.2l3.6-0.3l1-0.1h0.5l7.3,0.7l0.9-3.1l-0.4,1.2l-1.2-1.4l-6.5,4.4v-2l7.7,8.7l2.3-6.4l0.5,0.8
	l2.4,3.3l1.8,2.5l0.5,1l4.5-4.7h0.6l2.7,0.2l1.6-2l4.7-4.6L178,249c-1.4,0.9-2.9,1.9-4.5,3l-1,1.1l-0.3-0.2l-1.1,0.7l-0.9,0.3
	l-2.7,5.9l2.5,1.5l2.6,1.6l2-2.1l0.6-0.6l2-1.7l0.6-0.7l3.3,13.4l4.4-5.1l1.2,2.5l2.3,4.9l0.3,0.6l0.7,3.1l5.6-4.9l2.2,3.3l0.6,0.9
	l0.1,2.9c-29.8,1.7-141.8,7.6-196.4,5.5C0.6,275.5,0,265.8,0,256c0-16,1.5-31.7,4.3-47l2-2.1l4.8,14.8l0.9-0.9l3.1-3.7l3.8-6.5
	l2.3,15.2l3.8-6.5l5.7-1.5L34,217l5.3,6.2l3.9-4.1l1,0.1l1,0.1l3.1,0.2h0.5h0.1h0.2l0,0h0.2h0.2l0.9-0.9l0.4,1.3l0.5,0.2l6.2-2.1
	l-0.9,3.7L58,221.3z"/>
<path class="st0" d="M319.2,369.7c-0.3,1.2-6.9,49.4-6.9,49.4l13.9,1.2l-0.1-48.7L319.2,369.7z"/>
<path class="st0" d="M295.3,283.1c0,0,23-4.6,20.4,1.3s-32.2,21.3-32.2,21.3s23.5-3.4,20,4.7c-3.5,8-32.8,21.6-32.8,21.6
	s37.8-5.8,27.5,4.9c-10.3,10.7-47.8,28.8-47.8,28.8s47.6-10.1,46.1,1.9c-1.5,11.9-21,15.4-25,22.9c0,0,47-8.4,52.1-2
	c5.4,0,52.8,8.3,52.8,6.2c-3.5-7.8-23.6-13.5-24.2-25.5s46.1,0.9,46.1,0.9s-36-20.3-45.5-31.6c-9.5-11.3,27.8-3.2,27.8-3.2
	s-28.1-15.2-31.1-23.5c-2.9-8.2,20.3-3.5,20.3-3.5s-28.3-17.2-30.5-23.2c-2.2-6.1,20.4-0.1,20.4-0.1c-19-16-26-32.7-30.6-41.5
	C323.7,252,315.5,268.3,295.3,283.1z"/>
<path class="st0" d="M295.3,283.1c0,0,23-4.6,20.4,1.3s-32.2,21.3-32.2,21.3s23.5-3.4,20,4.7c-3.5,8-32.8,21.6-32.8,21.6
	s37.8-5.8,27.5,4.9c-10.3,10.7-47.8,28.8-47.8,28.8s47.6-10.1,46.1,1.9s-21,15.4-25,22.9c-9.6,3.3,38.8-5.8,52.1-2l5.9-144.2
	l-0.4-0.8C323.7,252,315.5,268.2,295.3,283.1z"/>
<path class="st0" d="M383.7,389c-0.2,0.8-4.5,32.2-4.5,32.2l9.1,0.8l-0.1-31.7L383.7,389z"/>
<path class="st0" d="M368.2,332.7c0,0,15-3,13.2,0.9c-1.7,3.8-21,13.9-21,13.9s15.3-2.2,13,3s-21.3,14-21.3,14s24.6-3.8,17.9,3.2
	s-31.1,18.7-31.1,18.7s31-6.6,30,1.2c-1,7.8-13.6,10-16.3,14.9c0,0,30.6-5.4,33.9-1.3c3.5,0,34.3,5.4,34.4,4
	c-2.3-5.1-15.3-8.8-15.7-16.6s30,0.6,30,0.6s-23.4-13.2-29.6-20.6s18.1-2.1,18.1-2.1s-18.3-9.9-20.2-15.3
	c-1.9-5.4,13.2-2.3,13.2-2.3s-18.4-11.2-19.9-15.1c-1.4-3.9,13.3-0.1,13.3-0.1c-12.4-10.4-16.9-21.3-19.9-27
	C386.7,312.4,381.3,323,368.2,332.7z"/>
<path class="st0" d="M368.2,332.7c0,0,15-3,13.2,0.9c-1.7,3.8-21,13.9-21,13.9s15.3-2.2,13,3s-21.3,14-21.3,14s24.6-3.8,17.9,3.2
	s-31.1,18.7-31.1,18.7s31-6.6,30,1.2s-13.6,10-16.3,14.9c-6.2,2.2,25.3-3.8,33.9-1.3l3.9-93.8l-0.3-0.5
	C386.7,312.4,381.3,323,368.2,332.7z"/>
<path class="st0" d="M258.7,335.6c3.3-0.2,8.9,0.1,13-1s6.8-3.4,6.6-5.5c-0.2-2-3.2-3.8-6.3-4.9c-3.2-1.1-6.6-1.7-9.8-0.6
	c-3.3,1-6.4,3.6-7.9,6c-1.5,2.5-1.3,4.8-0.7,5.7C254.3,336.3,255.4,335.7,258.7,335.6z"/>
<path class="st0" d="M257.1,328.5c0.5-1.1,2.3-2.8,4.8-3.6c2.5-0.8,5.7-0.6,7.8,0c2.1,0.6,3.2,1.5,3.3,2.3c0.1,0.8-0.8,1.4-2.6,1.8
	c-1.8,0.3-4.5,0.3-6.7,0.6c-2.2,0.3-4,0.8-5.2,0.8C257.2,330.2,256.5,329.6,257.1,328.5z"/>
<path class="st0" d="M232.8,337.6c2.5-0.1,6.6,0.1,9.6-0.7c3.1-0.8,5-2.5,4.9-4s-2.3-2.8-4.7-3.6c-2.4-0.8-4.9-1.2-7.3-0.5
	c-2.4,0.8-4.7,2.6-5.8,4.5c-1.1,1.8-1,3.6-0.5,4.3C229.6,338.1,230.4,337.7,232.8,337.6z"/>
<path class="st0" d="M231.6,332.3c0.4-0.8,1.7-2.1,3.5-2.7s4.2-0.4,5.8,0s2.4,1.1,2.4,1.7c0.1,0.6-0.6,1.1-1.9,1.3
	c-1.3,0.2-3.3,0.2-5,0.4c-1.6,0.2-3,0.6-3.9,0.6C231.7,333.6,231.2,333.2,231.6,332.3z"/>
<path class="st0" d="M310.4,427.5c4.2-0.2,11.2,0.1,16.4-1.2c5.2-1.3,8.6-4.3,8.4-6.9s-4-4.8-8-6.2c-4-1.4-8.3-2.1-12.4-0.8
	c-4.1,1.3-8.1,4.5-9.9,7.6c-1.9,3.1-1.6,6.1-0.8,7.3C304.8,428.4,306.2,427.7,310.4,427.5z"/>
<path class="st0" d="M308.3,418.6c0.7-1.4,2.9-3.6,6-4.6s7.2-0.8,9.9-0.1c2.7,0.7,4,1.9,4.1,2.9s-1,1.8-3.3,2.2
	c-2.3,0.4-5.6,0.4-8.4,0.7c-2.8,0.3-5,1-6.6,1C308.5,420.7,307.6,420,308.3,418.6z"/>
<path class="st0" d="M348.2,432.1c4.2-0.2,11.2,0.1,16.4-1.2c5.2-1.3,8.6-4.3,8.4-6.9s-4-4.8-8-6.2c-4-1.4-8.3-2.1-12.4-0.8
	s-8.1,4.5-9.9,7.6c-1.9,3.1-1.6,6.1-0.8,7.3C342.6,433,344,432.3,348.2,432.1z"/>
<path class="st0" d="M346.1,423.2c0.7-1.4,2.9-3.6,6-4.6s7.2-0.8,9.9-0.1c2.7,0.7,4,1.9,4.1,2.9s-1,1.8-3.3,2.2
	c-2.3,0.4-5.6,0.4-8.4,0.7c-2.8,0.3-5,1-6.6,1C346.2,425.4,345.4,424.7,346.1,423.2z"/>
<path class="st0" d="M264,302.5l-10.5-3.4l2.8,6.8l1.6,3.5l-11.8,1.8l2.5,5.4l-0.6,4l-9.9-2.4l-0.8,5l-0.4,1.3l1.5,0.3l1.1-0.7
	l5.5-3.4l0.7,5.5l-0.7-0.1l0.7,4.6c0.5,0.4,1,0.8,1.3,1.2c0.4-0.1,0.9-0.1,1.3-0.2l0.2-1.5l-2.5-5.4l11.8-1.8l-1.6-3.5l-2.8-6.8
	l10.5,3.4l-0.1-6.1l11.5,4.2l-0.1-4.1v-4.5l1.7-0.5l-1.7-7.4l7.8,2.9l-1.9-6.2l5.6,1l0.5-7l12.2,6.9l0.1-1l-1.2-6.7l9,3.9
	c1-0.7,1.9-1.3,2.8-2l-0.6-3.2l6-2.5c1-5.1-20.5-0.8-20.5-0.8c1-0.7,1.9-1.5,2.9-2.2l-10.7-6.1l-0.5,7l-5.6-1l1.9,6.2l-7.8-2.9
	l1.7,7.4l-1.7,0.5v4.5v1.1v3l-11.5-4.2L264,302.5z M344.6,269.5c1.9,2.4,4,4.9,6.3,7.3l1.4-0.9l4.7-3.9l0.2,0.6l8.4,6.9l2.1-7
	l10.7,10.1l2.1-7h0.1l1.3-0.3l0.5-0.1l0.8-0.2l0.8-0.2h0.1l4.4-5.5l5.3,12.9l4.4-5.5l13.2,1h0.2l2.3,0.9l0.6,1.2l4.8-3.6l2.3,0.5
	l0.4,0.1l0.9,1.4l3.2-7.6l2.1-0.2h0.5l0.8-0.1h0.3h0.2l2.4-0.2l0.7-4l0.3-1.6l5.5,1.4l5.6,1.4l0.3-1.7l0.6-4l0.5-0.3l1.2-0.8
	l0.8-0.6l0.1-0.1l1-0.6v0.4l7,0.1l-4.3,3.9l0.5,1.8l1,3.7l7-2.2l2.8-0.9l10.2-1.3l0.2-0.1l3.4-1.6l1.3-0.8l5.8-5.2l0.6,7.1l0.1,0.9
	v0.6l4.8,0.6l1.2-2.4l1.5-2.8l1.8,2.7l4.8,7l2.7-5.2l2.4-1.3l0.2-0.1l0.7-0.3l1.1-0.6l0.5-0.2l1.5-0.7l1.3-14.2l-2.8,1.2l-1.6,0.8
	l-0.7,0.3l-0.2,0.1l-2.4,1.3l-2.7,5.2l-6.6-9.6l-2.7,5.2l-4.8-0.6v-0.6l-0.6-8l-5.8,5.2l-1.3,0.8l-3.6,1.7l-10.2,1.3l-2.8,0.9
	l-7,2.2l-1.4-5.5l4.3-3.9l-7-0.1v-0.4l-1,0.6l-0.1,0.1l-0.8,0.6l-1.2,0.8l-0.5,0.3l-0.9,5.7l-11.1-2.9l-0.9,5.7l-2.4,0.2h-0.2h-0.3
	l-0.8,0.1h-0.5l-2.1,0.2l-3.2,7.6l-0.9-1.4l-0.4-0.1l-2.3-0.5l-4.8,3.6l-0.6-1.2l-2.3-0.9h-0.2l-13.2-1l-3.6,4.4l-0.8,1l-0.4-1
	l-4.9-12l-4.4,5.5h-0.1l-0.8,0.2l-0.8,0.2l-0.5,0.1l-1.3,0.3h-0.1l-1.8,6.1l-0.3,0.9l-0.9-0.9l-9.8-9.2l-2.1,7l-8.1-6.7l-0.3-0.2
	l-0.2-0.6l-2.3,1.9l-1.6,1.4l-0.7,0.6l-2.3,1.5l-3.7,0.8l-2,4.6C344.4,269.3,344.5,269.4,344.6,269.5z"/>
<path class="st0" d="M273.6,276.2c14.3,0,26,0.8,26,1.8s-11.6,1.8-26,1.8s-26-0.8-26-1.8S259.3,276.2,273.6,276.2z M8.1,320.1
	L8,319.9c1.9-0.7,22.7-1.2,48.2-1.2c26.7,0,48.3,0.6,48.3,1.3s-21.6,1.3-48.3,1.3C31,321.2,10.3,320.7,8.1,320.1z M160.2,325.7
	c34.2,0,62,0.6,62,1.4s-27.8,1.4-62,1.4c-34.3,0-62-0.6-62-1.4C98.2,326.4,126,325.7,160.2,325.7z M126.6,305.1
	c45.2,0,81.8,1,81.8,2.1c0,1.2-36.6,2.1-81.8,2.1s-81.8-1-81.8-2.1C44.9,306.1,81.5,305.1,126.6,305.1z M62.7,289.8
	c32.1,0,58.1,0.6,58.1,1.4s-26,1.4-58.1,1.4S4.6,292,4.6,291.2C4.6,290.4,30.6,289.8,62.7,289.8z M215.2,285.7
	c27,0,48.8,1.1,48.8,2.5s-21.9,2.5-48.8,2.5c-27,0-48.8-1.1-48.8-2.5C166.4,286.9,188.2,285.7,215.2,285.7z"/>
<g>
	<path class="st0" d="M331,95.6c0,0,5.8-1.2,10.6-0.3c4.8,0.9,9.9,4.9,15.3,5.3c5.5,0.3,4.3-1.8,4.3-1.8s-3.5,0.5-4.4-2.5
		s2.9-5.4,8.7-9.5c5.9-4.1,7-8.2,5.9-10.8c0,0-1,1.6-5.9,4.2c-4.8,2.6-8.3,7.3-12.1,10.7c-3.8,3.4-4,3.6-7.6,2.9
		C342.2,93.1,334.5,92,331,95.6z"/>
	<path class="st0" d="M303.8,132.5c0,0,5.8-1.2,10.6-0.3c4.8,0.9,9.9,4.9,15.3,5.3c5.5,0.3,4.3-1.8,4.3-1.8s-3.5,0.5-4.4-2.5
		s2.9-5.4,8.7-9.5c5.9-4.1,7-8.2,5.9-10.8c0,0-1,1.6-5.9,4.2c-4.8,2.6-8.3,7.3-12.1,10.7c-3.8,3.4-4,3.6-7.6,2.9
		C315,130,307.3,128.9,303.8,132.5z"/>
	<path class="st0" d="M378,97.4c0,0,5.8-1.2,10.6-0.3c4.8,0.9,9.9,4.9,15.3,5.3c5.5,0.3,4.3-1.8,4.3-1.8s-3.5,0.5-4.4-2.5
		s2.9-5.4,8.7-9.5c5.9-4.1,7-8.2,5.9-10.8c0,0-1,1.6-5.9,4.2c-4.8,2.6-8.3,7.3-12.1,10.7c-3.8,3.4-4,3.6-7.6,2.9
		C389.3,94.9,381.5,93.8,378,97.4z"/>
	<path class="st0" d="M362.2,129.1c0,0,5.8-1.2,10.6-0.3c4.8,0.9,9.9,4.9,15.3,5.3c5.5,0.3,4.3-1.8,4.3-1.8s-3.5,0.5-4.4-2.5
		c-0.9-3,2.9-5.4,8.7-9.5c5.9-4.1,7-8.2,5.9-10.8c0,0-1,1.6-5.9,4.2c-4.8,2.6-8.3,7.3-12.1,10.7c-3.8,3.4-4,3.6-7.6,2.9
		S365.7,125.5,362.2,129.1z"/>
</g>
<rect x="322.4" y="256.7" transform="matrix(0.9992 4.021542e-02 -4.021542e-02 0.9992 13.2004 -12.8807)" class="st1" width="8.7" height="129.9"/>
<rect x="326.8" y="251.8" class="st1" width="4.8" height="5.1"/>
<rect x="327.4" y="250.2" class="st1" width="3.4" height="2.2"/>
<rect x="327.7" y="248.4" class="st1" width="3.1" height="1.9"/>
<rect x="330.4" y="248" transform="matrix(0.9068 -0.4215 0.4215 0.9068 -74.2272 162.6292)" class="st2" width="0.7" height="2.4"/>
<rect x="327.2" y="247" transform="matrix(0.8231 0.5679 -0.5679 0.8231 198.8944 -142.1199)" class="st2" width="0.7" height="2.4"/>
<rect x="384.6" y="318.6" transform="matrix(0.9974 7.140679e-02 -7.140679e-02 0.9974 26.6249 -26.7841)" class="st1" width="6.6" height="80.7"/>
<path class="st1" d="M391.9,313.9c0-0.1,0-0.1-0.1-0.2c0-0.1-0.1-0.1-0.1-0.1c0-0.1,0-0.2,0-0.2c0.1-0.2,0-0.4-0.1-0.5c0,0,0,0,0,0
	v-0.1h-0.1c0,0,0,0-0.1,0c0,0,0,0,0,0c0-0.2-0.1-0.4-0.2-0.5l0.2-0.2l-1.5-1.2l-1.2,1.5l0.6,0.5h-0.9v6.1h3.2v-3.6
	c0.1,0,0.2-0.1,0.3-0.1c0.1-0.1,0.2-0.2,0.1-0.4C392,314.4,392,314.2,391.9,313.9z"/>
<path class="st1" d="M389.1,312c-0.6,0-0.6,1,0,1C389.7,313,389.7,312,389.1,312z"/>
<rect x="388" y="310.1" class="st2" width="3.5" height="2.7"/>
</svg>
